<?xml version="1.0" encoding="utf-8"?>
<!-- Generator: Adobe Illustrator 19.2.0, SVG Export Plug-In . SVG Version: 6.00 Build 0)  -->
<svg version="1.1" id="Layer_1" xmlns="http://www.w3.org/2000/svg" xmlns:xlink="http://www.w3.org/1999/xlink" x="0px" y="0px"
	 viewBox="0 0 452.8 452.8" style="enable-background:new 0 0 452.8 452.8;" xml:space="preserve">
<g>
	<path d="M384.2,18.4H68.7c-3,0-5.5,2.5-5.5,5.5v129.2L5.3,191.5l-0.9,0.6c-1.5,1-2.5,2.7-2.5,4.6v232.3c0,3,2.5,5.5,5.5,5.5h437.8
		c3,0,5.5-2.5,5.5-5.5V196.7c0-1.8-0.9-3.6-2.5-4.6l-58.7-38.9V23.9C389.7,20.9,387.2,18.4,384.2,18.4z M389.7,202.2h33.6L389.7,220
		V202.2z M74.2,29.4h304.5v196.4L251,293.5l-21.6-14.3c-1.8-1.2-4.2-1.2-6.1,0l-21.6,14.3L74.2,225.8V29.4z M63.2,166.3v24.8H25.8
		L63.2,166.3z M63.2,202.2V220l-33.6-17.8H63.2z M13,205.8l178.4,94.6L13,418.7V205.8z M25.7,423.4l200.7-133l1.1,0.7l199.6,132.3
		H25.7z M439.8,418.7L261.5,300.4l178.4-94.6V418.7z M427.1,191.2h-37.4v-24.8L427.1,191.2z"/>
	<path d="M291.7,144.2c0-36-29.3-65.3-65.3-65.3c-36,0-65.3,29.3-65.3,65.3v2.2c0,36,29.3,65.3,65.3,65.3h59.8c3,0,5.5-2.5,5.5-5.5
		s-2.5-5.5-5.5-5.5h-59.8c-29.9,0-54.3-24.3-54.3-54.3v-2.2c0-29.9,24.3-54.3,54.3-54.3c29.9,0,54.3,24.3,54.3,54.3v5.5
		c0,7.3-6,13.3-13.3,13.3c-7.3,0-13.3-6-13.3-13.3v-10.5c0-16.8-13.6-30.4-30.4-30.4c-16.8,0-30.4,13.6-30.4,30.4
		c0,16.8,13.6,30.4,30.4,30.4c7.4,0,14.5-2.7,20-7.6l1.8-1.6l1.2,2c4.5,7.2,12.2,11.5,20.7,11.5c13.4,0,24.3-10.9,24.3-24.3V144.2z
		 M223.6,158.6c-10.7,0-19.4-8.7-19.4-19.4c0-10.7,8.7-19.4,19.4-19.4c10.7,0,19.4,8.7,19.4,19.4C243,149.9,234.3,158.6,223.6,158.6
		z"/>
</g>
</svg>
