<?xml version="1.0" encoding="utf-8"?>
<!-- Generator: Adobe Illustrator 19.2.0, SVG Export Plug-In . SVG Version: 6.00 Build 0)  -->
<svg version="1.1" id="Layer_1" xmlns="http://www.w3.org/2000/svg" xmlns:xlink="http://www.w3.org/1999/xlink" x="0px" y="0px"
	 viewBox="0 0 50 50" style="enable-background:new 0 0 50 50;" xml:space="preserve">
<path d="M44.2,16.1c1.6,2.3,5.1,7.3,5.2,7.4c0.2,0.3,0.1,0.6-0.2,0.8c-1.4,0.6-4.3,2-4.4,2c-0.3,0.1-0.3,0.3-0.3,0.5
	c0,4.2,0,8.5,0,12.7c0,0.5-0.1,0.6-0.5,0.8c-1,0.4-17.6,7.5-18.6,7.9c-0.3,0.1-0.5,0.1-0.7,0C23.1,47.5,7.4,40.9,6,40.3
	c-0.3-0.1-0.4-0.4-0.4-0.7c0-4.2,0-8.5,0-12.7c0-0.3-0.1-0.5-0.4-0.6c-1.4-0.6-2.8-1.3-4.2-2c-0.4-0.2-0.5-0.5-0.2-0.8
	c0.6-0.9,3.9-5.6,5-7.1c0-0.1,0-0.2,0-0.2C5,14.8,1.2,9.3,0.1,7.7C-0.1,7.3,0,7,0.4,6.8c1.4-0.4,17.2-5.1,17.5-5.1
	c0.2-0.1,0.4,0,0.5,0.2c0.8,1,5,6.4,6.3,8.1c0.3-0.4,4.6-5.8,6.4-8c0.2-0.3,0.5-0.3,0.8-0.2c0.9,0.3,17.1,5,17.6,5.2
	c0.4,0.1,0.5,0.5,0.3,0.8C48.9,9.3,44.5,15.7,44.2,16.1z M24.5,25C24.5,25,24.5,25,24.5,25c-0.2,0.3-4.6,6.8-5,7.3
	c-0.2,0.3-0.4,0.4-0.7,0.2C18.7,32.5,6.9,27,6.6,26.9c0,0.1,0,8.3,0,12.3c0,0.2,0.1,0.3,0.2,0.3c0.7,0.3,17.5,7.5,17.7,7.5
	C24.5,39.7,24.5,32.4,24.5,25z M43.5,26.9c-0.3,0.1-10,4.7-12.1,5.6c-0.4,0.2-0.6,0.1-0.8-0.2c-0.3-0.4-4.8-7.2-5-7.4
	c0,7.4,0,14.8,0,22.2c0.1,0,16.5-7,17.6-7.5c0.2-0.1,0.3-0.2,0.3-0.4C43.5,35.2,43.5,27.1,43.5,26.9z M6.8,16.1
	c1.1,0.4,17.1,6.7,18,7.1c0.1,0,0.3,0.1,0.4,0c1-0.4,17.9-7,18-7c-0.1-0.1-16.7-4.8-18.4-5.3c0,0-0.1,0-0.2,0
	C24.1,11,7.3,16,6.8,16.1z M26.1,23.9c0.1,0.1,0.1,0.2,0.2,0.2c0.8,1.2,4,5.9,4.8,7.1c0.1,0.2,0.2,0.2,0.5,0.1
	c0.6-0.3,16.4-7.6,16.8-7.8c-0.1-0.2-3.1-4.5-4.5-6.5c0,0-0.1-0.1-0.1-0.1C43.4,17.1,26.6,23.7,26.1,23.9z M1.9,23.6
	c0.1,0,16.1,7.5,16.9,7.9c0.1,0.1,0.2,0.1,0.3-0.1c0.5-0.8,4.8-7.1,5-7.4c-0.1,0-17.1-6.7-17.6-6.9C4.9,19.2,3.4,21.4,1.9,23.6z
	 M48.7,7.7c-0.6-0.2-15.1-4.4-16.5-4.8c-0.3-0.1-0.4,0-0.6,0.2c-1.2,1.5-5,6.3-5.7,7.1c0.1,0.1,16.5,4.8,17.4,5.1
	c0.1,0,0.2,0,0.3-0.1C44.4,14,47.8,9.1,48.7,7.7z M1.3,7.6c0.7,1,4,5.9,5,7.4c0,0.1,0.2,0.1,0.3,0.1c0.2,0,16.5-4.8,17.1-5
	c-0.1-0.1-4.3-5.5-5.6-7.3c-0.1-0.1-0.2-0.1-0.3-0.1C17,3,1.8,7.5,1.3,7.6z"/>
</svg>
