<svg id="Layer_1" data-name="Layer 1" xmlns="http://www.w3.org/2000/svg" xmlns:xlink="http://www.w3.org/1999/xlink" viewBox="0 0 35 35"><defs><style>.cls-1{fill:none;}.cls-2{clip-path:url(#clip-path);}</style><clipPath id="clip-path"><rect class="cls-1" x="13.21" y="9.25" width="8.58" height="15.72"/></clipPath></defs><title>icons</title><g class="cls-2"><path d="M21.39,9.23h-2a3.58,3.58,0,0,0-3.77,3.87v1.78h-2a0.32,0.32,0,0,0-.32.32v2.58a0.32,0.32,0,0,0,.32.32h2v6.52a0.32,0.32,0,0,0,.32.32h2.67a0.32,0.32,0,0,0,.32-0.32V18.1h2.4a0.32,0.32,0,0,0,.32-0.32V15.2A0.32,0.32,0,0,0,21.52,15a0.32,0.32,0,0,0-.23-0.09h-2.4V13.36A0.91,0.91,0,0,1,20,12.27h1.37a0.32,0.32,0,0,0,.32-0.32V9.55a0.32,0.32,0,0,0-.32-0.32h0Zm0,0"/></g></svg>