<svg id="Layer_1" data-name="Layer 1" xmlns="http://www.w3.org/2000/svg" viewBox="0 0 35 35"><title>icons</title><path d="M24.18,16.39v-2H22.87v2h-2V17.7h2v2h1.31v-2h2V16.39h-2Zm-5,2.23-0.72-.53a1.1,1.1,0,0,1-.53-0.92,1.3,1.3,0,0,1,.66-1,3.39,3.39,0,0,0,1.7-2.82,3.28,3.28,0,0,0-1.31-2.55h1.11l0.79-.92H16.78c-2.88,0-4.33,1.83-4.33,3.8a3.17,3.17,0,0,0,3.28,3.15h0.52a2.58,2.58,0,0,0-.26.85,1.77,1.77,0,0,0,.59,1.31,8.82,8.82,0,0,0-3.87,1,2.84,2.84,0,0,0-1.51,2.43c0,1.51,1.38,3,4.33,3,3.54,0,5.24-2,5.24-3.87a3.57,3.57,0,0,0-1.64-2.88h0Zm-5-6a1.83,1.83,0,0,1,1.77-2.1c1.7,0,2.62,2.3,2.62,3.61a1.89,1.89,0,0,1-1.9,2c-1.64,0-2.49-2-2.49-3.54h0Zm2.36,11.8c-2.16,0-3.54-1-3.54-2.43a2.37,2.37,0,0,1,1.7-2.1,9.39,9.39,0,0,1,2.16-.33H17.3c1.57,1.11,2.23,1.57,2.23,2.62,0,1.25-1.24,2.23-3,2.23h0Zm0,0"/></svg>