<svg id="Layer_1" data-name="Layer 1" xmlns="http://www.w3.org/2000/svg" xmlns:xlink="http://www.w3.org/1999/xlink" viewBox="0 0 35 35"><defs><style>.cls-1{fill:none;}.cls-2{clip-path:url(#clip-path);}</style><clipPath id="clip-path"><rect class="cls-1" x="8.75" y="12.75" width="17.5" height="10"/></clipPath></defs><title>icons</title><g class="cls-2"><path d="M26,21.7L26,21.59a9,9,0,0,0-1.73-2l0,0h0q-0.58-.55-0.73-0.74a0.7,0.7,0,0,1-.13-0.73,6.84,6.84,0,0,1,.81-1.19l0.59-.77q1.57-2.08,1.36-2.66l-0.05-.09a0.53,0.53,0,0,0-.28-0.15,1.41,1.41,0,0,0-.58,0l-2.61,0a0.34,0.34,0,0,0-.18,0l-0.12,0,0,0,0,0a0.39,0.39,0,0,0-.1.09,0.62,0.62,0,0,0-.09.16,14.8,14.8,0,0,1-1,2q-0.34.56-.62,1a4.73,4.73,0,0,1-.47.61,3.26,3.26,0,0,1-.34.31,0.33,0.33,0,0,1-.24.1l-0.15,0a0.59,0.59,0,0,1-.2-0.22,1,1,0,0,1-.1-0.35q0-.21,0-0.37c0-.1,0-0.25,0-0.43s0-.31,0-0.38q0-.34,0-0.75t0-.64q0-.24,0-0.5a2.09,2.09,0,0,0,0-.41,1.4,1.4,0,0,0-.1-0.29A0.49,0.49,0,0,0,18.64,13a1,1,0,0,0-.3-0.12,6.07,6.07,0,0,0-1.22-.12A5.94,5.94,0,0,0,15,13a1.21,1.21,0,0,0-.34.27q-0.16.2,0,.22a1.11,1.11,0,0,1,.77.39L15.39,14a1.7,1.7,0,0,1,.13.42,4.18,4.18,0,0,1,.08.66,7,7,0,0,1,0,1.13q0,0.47-.09.73a1.47,1.47,0,0,1-.12.43l-0.11.2,0,0a0.67,0.67,0,0,1-.24,0,0.57,0.57,0,0,1-.31-0.13,2.17,2.17,0,0,1-.38-0.35,4.65,4.65,0,0,1-.44-0.62q-0.24-.4-0.51-0.94l-0.14-.26q-0.14-.25-0.37-0.74t-0.42-.94a0.6,0.6,0,0,0-.22-0.29l0,0L12,13.24l-0.21-.06-2.48,0a0.63,0.63,0,0,0-.52.17l0,0.05a0.3,0.3,0,0,0,0,.14,0.72,0.72,0,0,0,.05.24Q9.35,15.09,10,16.28t1.11,1.91q0.47,0.72,1,1.37t0.65,0.82L13,20.65l0.23,0.22a5.32,5.32,0,0,0,.64.52,10.88,10.88,0,0,0,.93.6,5.07,5.07,0,0,0,1.19.48,4.1,4.1,0,0,0,1.32.15h1a0.72,0.72,0,0,0,.48-0.2l0,0a0.6,0.6,0,0,0,.07-0.17,0.92,0.92,0,0,0,0-.25,3,3,0,0,1,.06-0.7,1.84,1.84,0,0,1,.15-0.47,1.14,1.14,0,0,1,.19-0.27,0.77,0.77,0,0,1,.15-0.13l0.07,0a0.58,0.58,0,0,1,.51.14,3,3,0,0,1,.55.53q0.26,0.31.62,0.7a4.32,4.32,0,0,0,.63.58L22,22.41a2.19,2.19,0,0,0,.47.2,1,1,0,0,0,.51,0l2.32,0a1,1,0,0,0,.53-0.11,0.45,0.45,0,0,0,.23-0.25,0.7,0.7,0,0,0,0-.31A1.18,1.18,0,0,0,26,21.7h0Zm0,0"/></g></svg>